<?xml version="1.0" encoding="UTF-8"?>
<svg version="1.1" xmlns="http://www.w3.org/2000/svg" width="1600" height="1600">
<path d="M0 0 C6.65134239 4.5609205 11.25250704 11.14785462 13.80078125 18.78125 C15.41821704 29.24448506 12.72535943 38.51338204 9.8581543 48.50292969 C-9.69615437 117.78215733 -13.20180287 192.47512916 -14.76171875 264.03125 C-14.78256531 264.97745209 -14.80341187 265.92365417 -14.82489014 266.89852905 C-16.67296563 352.40276249 -12.95190286 438.03806722 -5.51171875 523.21875 C-5.34910049 525.09398849 -5.34910049 525.09398849 -5.18319702 527.0071106 C-4.87835142 530.49361374 -4.56608428 533.97934339 -4.25 537.46484375 C-4.15848663 538.50317352 -4.06697327 539.5415033 -3.97268677 540.61129761 C-3.88542328 541.54837555 -3.79815979 542.48545349 -3.70825195 543.45092773 C-3.63371292 544.26826889 -3.55917389 545.08561005 -3.4823761 545.92771912 C-3.38459925 547.79327417 -3.38459925 547.79327417 -2.19921875 548.78125 C5.6131861 532.66310874 13.41255302 516.53940502 21.12890625 500.375 C24.49102735 493.33197892 27.866887 486.29554799 31.25073242 479.26293945 C33.78699332 473.98972401 36.30975026 468.71087534 38.8046875 463.41796875 C64.61559482 408.80437793 100.74407396 351.54905024 149.17578125 313.87109375 C151.35810156 312.133681 153.42838262 310.34444275 155.5078125 308.48828125 C159.97149914 304.55833043 164.68579274 301.03361731 169.48828125 297.53125 C170.31650391 296.92023438 171.14472656 296.30921875 171.99804688 295.6796875 C175.84699444 292.85692051 179.67947098 290.19720608 183.80078125 287.78125 C183.26401674 277.45153576 182.20222309 267.3208348 180.61328125 257.09375 C180.50473816 256.38669922 180.39619507 255.67964844 180.28436279 254.95117188 C170.74342613 193.18262008 150.93235678 128.84493168 110.80078125 79.78125 C110.14577637 78.97397461 110.14577637 78.97397461 109.47753906 78.15039062 C100.49668452 67.11990981 90.96283449 57.2950318 79.66772461 48.63549805 C73.74052515 44.05105668 68.28524532 39.50046318 66.80078125 31.78125 C65.87108049 23.7323338 66.98159919 17.41198002 71.80078125 10.78125 C78.01675365 4.61633281 84.35560849 2.63685101 92.9453125 2.3203125 C100.6737177 3.5678526 106.700665 7.82238264 112.55078125 12.78125 C113.23325928 13.3486792 113.9157373 13.9161084 114.61889648 14.50073242 C123.95947637 22.33396143 133.01242314 30.37386777 140.80078125 39.78125 C141.60644531 40.6990625 142.41210938 41.616875 143.2421875 42.5625 C190.15089846 96.16637881 231.53871868 189.88911704 229.80078125 262.78125 C230.70280273 262.41942627 230.70280273 262.41942627 231.62304688 262.05029297 C252.66092968 253.69000054 277.69808004 243.97377695 300.80078125 244.78125 C304.78859592 184.89281891 298.62337069 125.69365739 258.0078125 78.70703125 C239.1785919 58.76200499 213.07808044 48.6323405 186.05078125 47.40625 C179.27760155 46.99764304 174.25744299 46.10427791 169.28515625 41.32421875 C164.24952801 35.6084913 163.34787042 31.29037543 163.484375 23.828125 C164.06773099 18.21062285 166.15496454 14.47278384 170.05078125 10.46875 C177.12098159 6.13021797 182.87968964 5.32304803 190.98828125 5.84375 C191.94516846 5.89901855 192.90205566 5.95428711 193.88793945 6.01123047 C233.53568762 8.72446769 266.30988148 26.79883536 293.30078125 55.40625 C333.60345374 101.96024943 347.50340284 166.602379 343.34765625 226.91796875 C342.89522233 232.87832994 342.37623831 238.83154436 341.80078125 244.78125 C343.06921875 244.74644531 344.33765625 244.71164062 345.64453125 244.67578125 C350.9934119 244.68100477 356.0556269 245.47707782 361.30078125 246.46875 C362.74155029 246.73776123 362.74155029 246.73776123 364.21142578 247.01220703 C404.32850764 254.78518304 440.5130917 274.42672282 469.80078125 302.78125 C470.5889624 303.53075928 470.5889624 303.53075928 471.39306641 304.29541016 C485.59828126 317.82639351 497.00514052 333.45253601 507.80078125 349.78125 C514.20113314 331.6848236 515.44067716 312.80073064 516.80078125 293.78125 C517.13078125 293.78125 517.46078125 293.78125 517.80078125 293.78125 C517.84041992 294.48918701 517.88005859 295.19712402 517.92089844 295.92651367 C519.8629714 329.13757077 524.61656896 363.15199838 547.80078125 388.78125 C548.90486328 390.02455078 548.90486328 390.02455078 550.03125 391.29296875 C574.65560137 417.52412934 612.40874942 424.47132983 646.8125 425.703125 C647.79863281 425.72890625 648.78476563 425.7546875 649.80078125 425.78125 C649.80078125 426.11125 649.80078125 426.44125 649.80078125 426.78125 C648.49596802 426.88614746 648.49596802 426.88614746 647.16479492 426.99316406 C615.50825433 429.59444133 582.8030792 433.03056901 557.80078125 454.78125 C557.10855469 455.16982178 556.41632813 455.55839355 555.703125 455.95874023 C553.01456689 457.70751563 551.48672487 459.03265755 549.80078125 461.78125 C549.50828584 466.78254349 550.28755273 471.41784045 551.22033691 476.32293701 C551.8355423 479.55915479 552.35415529 482.80870298 552.88000488 486.0604248 C553.14461203 487.68765712 553.41437904 489.31405887 553.68933105 490.9395752 C554.79408924 497.49187619 555.5522001 504.02875501 556.05078125 510.65625 C556.11765137 511.47601318 556.18452148 512.29577637 556.25341797 513.14038086 C556.46921283 516.01942059 556.63644083 518.89874321 556.80078125 521.78125 C556.84055172 522.47330246 556.88032219 523.16535491 556.92129783 523.87837865 C557.78619301 539.39094991 557.94773968 554.86985254 557.93545017 570.40385761 C557.93379006 573.9245066 557.93797991 577.44515003 557.94135934 580.96579713 C557.94647168 587.11362127 557.94793787 593.26143755 557.94690323 599.40926361 C557.94536845 608.55152926 557.94956152 617.69378632 557.95477785 626.83605029 C557.96441317 644.11634399 557.9672606 661.3966347 557.96783491 678.67693076 C557.96829549 692.02055941 557.97035918 705.3641869 557.97353554 718.70781517 C557.97443314 722.55670156 557.97532296 726.40558795 557.97621042 730.25447434 C557.97643146 731.21144273 557.97665251 732.16841113 557.97688026 733.15437856 C557.98302768 760.04275766 557.98698148 786.93113635 557.98653698 813.81951618 C557.9865214 814.83174298 557.98650582 815.84396977 557.98648977 816.88687011 C557.98640667 822.01664246 557.98630763 827.14641481 557.98620506 832.27618716 C557.98617515 833.80423815 557.98617515 833.80423815 557.98614462 835.36315885 C557.98610419 837.42321188 557.98606239 839.48326491 557.98601923 841.54331794 C557.98540606 873.61620412 557.99292349 905.68907974 558.0065918 937.76196289 C558.02195878 973.83524968 558.03055776 1009.90852954 558.02962857 1045.98181981 C558.02955395 1049.82913442 558.02950524 1053.67644904 558.02947426 1057.52376366 C558.0294626 1058.47100199 558.02945095 1059.41824032 558.02943894 1060.39418284 C558.02940821 1075.61842734 558.03578579 1090.84266264 558.04440652 1106.0669044 C558.05289084 1121.36655149 558.05386674 1136.66618514 558.0472972 1151.96583328 C558.04360769 1161.04726516 558.04541612 1170.12865618 558.05523954 1179.21008371 C558.06125367 1185.28442992 558.05992821 1191.35874664 558.05276904 1197.43309151 C558.04889983 1200.88817236 558.04807615 1204.34317434 558.0562264 1207.79824952 C558.12727046 1245.19080432 552.49818167 1275.40340609 525.80078125 1302.78125 C524.83591797 1303.85632812 524.83591797 1303.85632812 523.8515625 1304.953125 C506.07884515 1324.22939111 478.96126782 1332.47476101 453.515625 1333.91015625 C423.991053 1334.66979361 397.75477658 1324.10096491 376.19921875 1304.109375 C358.38958482 1286.82184761 344.67025424 1263.70913627 343.70665497 1238.29915249 C343.66811503 1235.28926338 343.66124745 1232.28078307 343.66490936 1229.27064514 C343.66236674 1228.1112346 343.65982412 1226.95182406 343.65720445 1225.75727987 C343.651145 1222.53808438 343.64952952 1219.31892191 343.64977721 1216.09972186 C343.64894775 1212.59755533 343.64234432 1209.09539892 343.6364665 1205.59323788 C343.62695433 1199.45443196 343.6211097 1193.31563104 343.61765862 1187.17681885 C343.61250319 1178.04739509 343.60164857 1168.91798436 343.58957918 1159.78856744 C343.56941089 1144.42562708 343.55371718 1129.06268525 343.54042053 1113.69973755 C343.5221892 1092.70402172 343.49748038 1071.70831705 343.47104663 1050.71261013 C343.45873692 1040.92823432 343.44674522 1031.14385812 343.43483734 1021.35948181 C343.43364482 1020.37990302 343.43245229 1019.40032422 343.43122363 1018.39106122 C343.40290646 995.06930367 343.37771081 971.7475429 343.35302734 948.42578125 C343.35194615 947.40530682 343.35086495 946.3848324 343.34975099 945.33343451 C343.33441115 930.85177904 343.31920682 916.37012343 343.3040365 901.88846779 C343.28564488 884.33319716 343.26717952 866.77792661 343.24853516 849.22265625 C343.24691596 847.69641943 343.24691596 847.69641943 343.24526405 846.13934954 C343.22058207 822.89013398 343.19501612 799.64091984 343.16672516 776.39170837 C343.16553491 775.41326679 343.16434466 774.4348252 343.16311834 773.42673387 C343.15121195 763.65538431 343.13915366 753.88403494 343.12686813 744.11268584 C343.10054568 723.14976637 343.07688943 702.18684876 343.05869474 681.22392057 C343.04538019 665.93017982 343.02871066 650.63644587 343.00859964 635.34271252 C342.9967852 626.26929933 342.98768861 617.19589297 342.98255367 608.12247348 C342.97884728 602.04527661 342.97155284 595.96809057 342.96146935 589.89090097 C342.95584361 586.43887044 342.95167038 582.98685716 342.95194048 579.53482163 C343.013696 549.41187151 343.013696 549.41187151 340.61328125 519.40625 C340.42536011 517.88088623 340.42536011 517.88088623 340.23364258 516.32470703 C337.59796401 496.58058306 333.33752577 475.40773475 321.80078125 458.78125 C290.58771882 466.03207202 266.57661166 497.8475734 250.43139648 523.59619141 C240.91557732 539.08737289 233.01833719 555.30469259 225.25097656 571.72363281 C222.80692176 576.87672076 220.33416067 582.01598499 217.86328125 587.15625 C216.85409721 589.25777915 215.84498288 591.35934177 214.8359375 593.4609375 C214.33465332 594.50475586 213.83336914 595.54857422 213.31689453 596.62402344 C210.81083217 601.84276715 208.30585829 607.06203326 205.80078125 612.28125 C204.80078654 614.36458587 203.80078654 616.44791921 202.80078125 618.53125 C202.05828125 620.078125 202.05828125 620.078125 201.30078125 621.65625 C167.80078125 691.44791667 134.30078125 761.23958333 100.80078125 831.03125 C100.30545898 832.06338623 99.81013672 833.09552246 99.29980469 834.15893555 C98.30373766 836.23364259 97.30699724 838.30802647 96.30957031 840.38208008 C93.74366274 845.71988945 91.19115567 851.06350931 88.66015625 856.41796875 C73.31968103 888.81540306 55.33466116 914.36956833 20.6484375 927.5 C-8.68554021 937.62404914 -37.71079818 935.15886093 -65.62109375 922.19140625 C-94.39750551 907.56224955 -108.72776519 882.8431916 -122.19921875 854.78125 C-122.94437744 853.23727539 -122.94437744 853.23727539 -123.70458984 851.66210938 C-126.43398486 846.00519526 -129.13726056 840.33625307 -131.82958984 834.66162109 C-134.25087622 829.56958247 -136.69478915 824.4884125 -139.13671875 819.40625 C-140.14586541 817.3047029 -141.15497993 815.20314037 -142.1640625 813.1015625 C-142.66534668 812.05774414 -143.16663086 811.01392578 -143.68310547 809.93847656 C-146.18916783 804.71973285 -148.69414171 799.50046674 -151.19921875 794.28125 C-152.19921346 792.19791413 -153.19921346 790.11458079 -154.19921875 788.03125 C-184.19921875 725.53125 -214.19921875 663.03125 -244.19921875 600.53125 C-244.69454102 599.49935547 -245.18986328 598.46746094 -245.70019531 597.40429688 C-246.69702482 595.32751462 -247.69377004 593.2506919 -248.69042969 591.17382812 C-251.23823753 585.86492309 -253.7876476 580.55679695 -256.33984375 575.25 C-256.85546875 574.17709717 -257.37109375 573.10419434 -257.90234375 571.9987793 C-258.92727713 569.86689846 -259.95330533 567.7355436 -260.98046875 565.60473633 C-263.13173535 561.13342777 -265.27048054 556.66089306 -267.30859375 552.13671875 C-283.7778584 515.68223193 -311.53422076 475.05971229 -349.80859375 459.42578125 C-352.31660692 458.5135571 -352.31660692 458.5135571 -355.19921875 459.78125 C-377.70723121 494.91102638 -375.35493125 543.5462272 -375.33724976 583.48937988 C-375.33911985 586.32815401 -375.34249289 589.16692591 -375.34579909 592.00569868 C-375.35217628 598.13734523 -375.35501253 604.26898503 -375.35542488 610.40063477 C-375.35607459 619.51872395 -375.36249978 628.63680288 -375.37017168 637.75488854 C-375.38220216 652.16466831 -375.39088767 666.5744476 -375.39720982 680.98423093 C-375.40727658 703.85147868 -375.42654637 726.71871171 -375.44875221 749.58595058 C-375.45727929 758.39946077 -375.46554669 767.21297122 -375.47385597 776.02648163 C-375.47524349 777.49488076 -375.47524349 777.49488076 -375.47665903 778.99294453 C-375.49861414 802.25636257 -375.51842396 825.51978223 -375.53710938 848.78320312 C-375.53792905 849.80019744 -375.53874873 850.81719176 -375.53959325 851.86500409 C-375.55868884 875.60612754 -375.57565217 899.34725089 -375.58795166 923.08837891 C-375.58848133 924.11048435 -375.589011 925.1325898 -375.58955671 926.18566814 C-375.5938089 934.42579788 -375.5979849 942.66592766 -375.60214151 950.90605745 C-375.61934318 984.890253 -375.64655371 1018.87442817 -375.68530189 1052.85860622 C-375.69076327 1057.65801092 -375.69609627 1062.45741575 -375.70134354 1067.25682068 C-375.70237792 1068.20128105 -375.7034123 1069.14574143 -375.70447802 1070.11882182 C-375.72078648 1085.30342166 -375.72633064 1100.48800722 -375.7276412 1115.67261498 C-375.72914633 1130.92843183 -375.74131307 1146.18420991 -375.76439761 1161.44000965 C-375.77776398 1170.49743817 -375.78280407 1179.55478197 -375.77585125 1188.61221816 C-375.77202208 1194.66799031 -375.77909104 1200.72368759 -375.79486703 1206.77944021 C-375.80353425 1210.2255519 -375.80759755 1213.6714903 -375.79829316 1217.11760432 C-375.72589884 1252.99317838 -384.83546075 1279.96661246 -410.42578125 1306.05078125 C-428.56969658 1323.3754897 -453.24234493 1332.94205687 -478.19921875 1333.78125 C-478.9778125 1333.82121094 -479.75640625 1333.86117188 -480.55859375 1333.90234375 C-506.873725 1334.65294313 -532.69231906 1325.79260066 -552.44921875 1308.34375 C-554.04141812 1306.83220125 -555.62482273 1305.31133355 -557.19921875 1303.78125 C-558.0190625 1303.03488281 -558.83890625 1302.28851562 -559.68359375 1301.51953125 C-579.66777834 1282.74556902 -589.42078448 1255.97024078 -590.2909139 1228.93192375 C-590.32766128 1225.87589065 -590.33374313 1222.82136958 -590.3278532 1219.76512146 C-590.32960624 1218.59962558 -590.33135928 1217.4341297 -590.33316544 1216.23331577 C-590.33699945 1213.01561682 -590.33640497 1209.79795489 -590.33388767 1206.58025581 C-590.33224635 1203.0725862 -590.3364023 1199.56492248 -590.33979684 1196.05725479 C-590.34493934 1189.91462446 -590.34637004 1183.77200201 -590.34534073 1177.62936974 C-590.34381365 1168.49368799 -590.34798253 1159.35801495 -590.35321535 1150.2223349 C-590.36288282 1132.94907944 -590.36569945 1115.67582696 -590.36627241 1098.40256912 C-590.36673239 1085.05072753 -590.368793 1071.69888711 -590.37197304 1058.3470459 C-590.37287064 1054.50004133 -590.37376046 1050.65303675 -590.37464792 1046.80603218 C-590.37486896 1045.8495425 -590.37509001 1044.89305281 -590.37531776 1043.90757859 C-590.38147228 1017.00101808 -590.38541833 990.09445797 -590.38497448 963.18789673 C-590.3849589 962.17351483 -590.38494332 961.15913294 -590.38492727 960.1140122 C-590.38484417 954.97308752 -590.38474513 949.83216284 -590.38464256 944.69123816 C-590.38462262 943.67030038 -590.38460267 942.64936259 -590.38458212 941.5974873 C-590.38454169 939.53289567 -590.38449989 937.46830405 -590.38445673 935.40371242 C-590.38384494 903.33245087 -590.39133272 871.26119992 -590.4050293 839.18994141 C-590.42042586 803.12351969 -590.42899324 767.05710494 -590.42806607 730.99067974 C-590.42799145 727.13613065 -590.42794274 723.28158156 -590.42791176 719.42703247 C-590.4279001 718.4780131 -590.42788845 717.52899373 -590.42787644 716.55121619 C-590.4278458 701.3438695 -590.43420523 686.13653207 -590.44284402 670.92918812 C-590.45136614 655.6088436 -590.4522752 640.28851248 -590.4457347 624.96816689 C-590.442388 616.6844532 -590.44214123 608.40077006 -590.45108795 600.11705971 C-590.546513 507.11417481 -585.80842999 410.10038819 -507.19921875 307.78125 C-506.46276123 306.99379395 -506.46276123 306.99379395 -505.71142578 306.19042969 C-497.01076784 296.93489004 -487.51293797 289.178543 -477.19921875 281.78125 C-476.56757813 281.32621094 -475.9359375 280.87117188 -475.28515625 280.40234375 C-446.69354328 260.02321535 -409.74688516 244.34075847 -374.19921875 244.78125 C-374.25980469 244.19037598 -374.32039062 243.59950195 -374.3828125 242.99072266 C-380.46821217 181.98459092 -372.2462487 112.87805362 -332.19921875 63.78125 C-331.7309668 63.20165527 -331.26271484 62.62206055 -330.78027344 62.02490234 C-305.84390124 31.3346365 -272.28518794 10.69179019 -232.51806641 6.49853516 C-229.6215533 6.23512593 -226.72678902 6.02804018 -223.82421875 5.84375 C-222.92098877 5.77381836 -222.01775879 5.70388672 -221.0871582 5.63183594 C-213.58917384 5.27141544 -206.65345874 6.66225687 -200.9453125 11.81640625 C-200.29755859 12.81994141 -200.29755859 12.81994141 -199.63671875 13.84375 C-199.18167969 14.51535156 -198.72664063 15.18695313 -198.2578125 15.87890625 C-195.32853674 21.14295532 -195.53965566 26.93411207 -196.19921875 32.78125 C-198.49924229 38.70786667 -202.58456038 42.90022389 -208.2109375 45.828125 C-212.58582453 47.2235138 -216.94777465 47.34993719 -221.51171875 47.65625 C-251.13123611 50.02493319 -276.67498949 62.61586356 -296.1171875 85.16015625 C-300.10774254 90.18391315 -303.70740996 95.4052792 -307.19921875 100.78125 C-307.80636719 101.71453125 -308.41351563 102.6478125 -309.0390625 103.609375 C-322.09625899 124.80881419 -328.36314027 149.40776639 -332.19921875 173.78125 C-332.37710938 174.8957251 -332.37710938 174.8957251 -332.55859375 176.03271484 C-335.96070895 198.49578795 -334.71985013 222.18901229 -333.19921875 244.78125 C-332.40942627 244.8237085 -331.61963379 244.86616699 -330.8059082 244.90991211 C-322.80796491 245.42082127 -315.19638353 246.56771851 -307.38671875 248.34375 C-306.23397461 248.60260986 -305.08123047 248.86146973 -303.89355469 249.12817383 C-289.66191887 252.44493454 -275.55907522 256.82098254 -262.19921875 262.78125 C-262.15603516 262.09482422 -262.11285156 261.40839844 -262.06835938 260.70117188 C-261.45048789 252.13599921 -260.19711591 243.72890482 -258.69921875 235.28125 C-258.57017151 234.55226501 -258.44112427 233.82328003 -258.3081665 233.07220459 C-251.39409508 194.45189449 -240.29330719 156.59719271 -224.19921875 120.78125 C-223.63267578 119.49202637 -223.63267578 119.49202637 -223.0546875 118.17675781 C-209.97749017 88.55083912 -192.1449792 61.03000755 -170.3203125 37.125 C-168.38090372 34.98200688 -166.50592576 32.79780362 -164.63671875 30.59375 C-161.13375881 26.58693966 -157.28111348 23.1851351 -153.19921875 19.78125 C-152.23242188 18.96140625 -151.265625 18.1415625 -150.26953125 17.296875 C-132.4697228 2.24903819 -132.4697228 2.24903819 -120.72265625 2.53125 C-114.28824834 3.16871456 -108.44503913 5.79390606 -104.19921875 10.78125 C-99.60474265 17.48506341 -97.98081802 23.72561024 -99.19921875 31.78125 C-101.40309768 41.16700012 -108.6833258 46.16194309 -115.875 51.92578125 C-127.36944868 61.15793612 -137.08758155 71.23617273 -145.90087891 83.04296875 C-147.12673441 84.6842044 -148.37140353 86.31133934 -149.6171875 87.9375 C-190.21828551 141.90907408 -210.76895316 215.07813683 -216.19921875 281.78125 C-216.38871094 283.35519531 -216.38871094 283.35519531 -216.58203125 284.9609375 C-216.47701036 287.96503692 -216.47701036 287.96503692 -213.953125 289.87890625 C-212.89996094 290.52730469 -211.84679687 291.17570312 -210.76171875 291.84375 C-209.56494867 292.61291047 -208.37108391 293.38660443 -207.1796875 294.1640625 C-206.53692871 294.57946289 -205.89416992 294.99486328 -205.23193359 295.42285156 C-201.56759466 297.87161229 -198.07244234 300.5402151 -194.57421875 303.21875 C-193.84992676 303.77328857 -193.12563477 304.32782715 -192.37939453 304.89916992 C-187.2926837 308.83851538 -182.47454469 312.95457033 -177.7890625 317.3671875 C-175.7129254 319.30241032 -173.60721766 321.16129878 -171.45703125 323.01171875 C-166.81919052 327.05332002 -162.47415494 331.35924034 -158.13671875 335.71875 C-157.37294922 336.47865234 -156.60917969 337.23855469 -155.82226562 338.02148438 C-151.07389804 342.77797577 -146.5633733 347.67148152 -142.19921875 352.78125 C-141.31018829 353.80233804 -140.42088669 354.8231901 -139.53125 355.84375 C-132.35720402 364.20790903 -125.66966331 372.86305922 -119.19921875 381.78125 C-118.63799316 382.55388184 -118.07676758 383.32651367 -117.49853516 384.12255859 C-108.70558525 396.29420134 -100.72177643 408.79111342 -93.19921875 421.78125 C-92.68584961 422.65990723 -92.17248047 423.53856445 -91.64355469 424.44384766 C-85.07089195 435.69876952 -78.88345285 447.05331562 -73.19921875 458.78125 C-73.04704454 446.68509113 -73.59012368 434.68566013 -74.26928711 422.61206055 C-76.20038443 387.90625013 -76.38730566 353.22527949 -76.38452148 318.47363281 C-76.38444047 313.20016024 -76.39135944 307.92677501 -76.4050293 302.65332031 C-76.48914772 269.64239684 -76.11556763 236.7416753 -74.19921875 203.78125 C-74.13921125 202.74276665 -74.13921125 202.74276665 -74.07799149 201.68330383 C-73.6075149 193.62470551 -73.03635351 185.57722465 -72.38671875 177.53125 C-72.26124664 175.94038574 -72.26124664 175.94038574 -72.13323975 174.31738281 C-68.19522178 124.69268239 -61.67343011 74.90308431 -48.57421875 26.78125 C-48.30939697 25.7910083 -48.0445752 24.8007666 -47.77172852 23.78051758 C-44.96762904 13.91348011 -40.97683881 5.53364617 -32.19921875 -0.21875 C-21.40949483 -5.60564319 -10.68491764 -5.92130427 0 0 Z M-72.19921875 460.78125 C-71.19921875 462.78125 -71.19921875 462.78125 -71.19921875 462.78125 Z " fill="#132032" transform="translate(816.19921875,40.21875)"/>
<path d="M0 0 C6.65134239 4.5609205 11.25250704 11.14785462 13.80078125 18.78125 C15.41821704 29.24448506 12.72535943 38.51338204 9.8581543 48.50292969 C-9.69615437 117.78215733 -13.20180287 192.47512916 -14.76171875 264.03125 C-14.78256531 264.97745209 -14.80341187 265.92365417 -14.82489014 266.89852905 C-16.72362666 354.74667795 -12.85652129 442.76165018 -4.77416992 530.24047852 C-4.66914658 531.38137436 -4.56412323 532.5222702 -4.45591736 533.69773865 C-4.26000828 535.81370442 -4.06136595 537.92941975 -3.85939026 540.04481506 C-2.61814669 553.35700022 -2.61814669 553.35700022 -5.82421875 559.8359375 C-6.365625 560.94453125 -6.90703125 562.053125 -7.46484375 563.1953125 C-8.0371875 564.33742188 -8.60953125 565.47953125 -9.19921875 566.65625 C-9.7715625 567.8215625 -10.34390625 568.986875 -10.93359375 570.1875 C-12.34504018 573.05744107 -13.76715104 575.92155806 -15.19921875 578.78125 C-15.85921875 578.78125 -16.51921875 578.78125 -17.19921875 578.78125 C-26.7466992 559.28975352 -36.211224 539.77423546 -45.296875 520.0625 C-51.94853078 505.63178916 -58.74739899 491.25813032 -66.08203125 477.16015625 C-66.40276611 476.53616943 -66.72350098 475.91218262 -67.05395508 475.26928711 C-67.95714271 473.51241104 -68.86892451 471.75996079 -69.78125 470.0078125 C-72.70948349 463.34466962 -72.54722928 456.09554043 -72.91796875 448.921875 C-72.98077026 447.74582703 -73.04357178 446.56977905 -73.10827637 445.35809326 C-73.24103798 442.85323888 -73.3720549 440.3482915 -73.50146484 437.84326172 C-73.69351011 434.14129278 -73.89317039 430.43979623 -74.09375 426.73828125 C-76.01467089 390.63851201 -76.38735626 354.61796407 -76.38452148 318.47363281 C-76.38444047 313.20016024 -76.39135944 307.92677501 -76.4050293 302.65332031 C-76.48914772 269.64239684 -76.11556763 236.7416753 -74.19921875 203.78125 C-74.13921125 202.74276665 -74.13921125 202.74276665 -74.07799149 201.68330383 C-73.6075149 193.62470551 -73.03635351 185.57722465 -72.38671875 177.53125 C-72.30307068 176.47067383 -72.21942261 175.41009766 -72.13323975 174.31738281 C-68.19522178 124.69268239 -61.67343011 74.90308431 -48.57421875 26.78125 C-48.30939697 25.7910083 -48.0445752 24.8007666 -47.77172852 23.78051758 C-44.96762904 13.91348011 -40.97683881 5.53364617 -32.19921875 -0.21875 C-21.40949483 -5.60564319 -10.68491764 -5.92130427 0 0 Z " fill="#E0B20A" transform="translate(816.19921875,40.21875)"/>
<path d="M0 0 C5.78463948 3.74300202 8.81549073 8.46506377 11 15 C12.1708403 22.23884741 11.21343934 28.9248084 7 35 C3.11970873 39.13225823 -1.26045512 42.60582461 -5.67578125 46.14453125 C-17.17022993 55.37668612 -26.8883628 65.45492273 -35.70166016 77.26171875 C-36.92751566 78.9029544 -38.17218478 80.53008934 -39.41796875 82.15625 C-82.50513402 139.432586 -98.50858839 212.34281045 -107 282 C-111.92496417 279.33926724 -116.84536944 276.67462226 -121.6953125 273.87890625 C-130.2022615 268.99043311 -138.82133837 264.60866719 -147.74609375 260.53125 C-151 259 -151 259 -152 258 C-151.86678028 248.3934868 -150.18318476 238.87232979 -148.5 229.4375 C-148.37095276 228.71101257 -148.24190552 227.98452515 -148.10894775 227.23602295 C-141.17999356 188.63691732 -130.08668929 150.79947657 -114 115 C-113.62230469 114.14051758 -113.24460937 113.28103516 -112.85546875 112.39550781 C-99.77827142 82.76958912 -81.94576045 55.24875755 -60.12109375 31.34375 C-58.18168497 29.20075688 -56.30670701 27.01655362 -54.4375 24.8125 C-50.93454006 20.80568966 -47.08189473 17.4038851 -43 14 C-42.03320312 13.18015625 -41.06640625 12.3603125 -40.0703125 11.515625 C-28.05692354 1.35958781 -16.01921563 -8.51128952 0 0 Z " fill="#EBBE0B" transform="translate(706,46)"/>
<path d="M0 0 C2.73115262 1.83711006 5.24055254 3.87285986 7.75 6 C8.43247803 6.5674292 9.11495605 7.1348584 9.81811523 7.71948242 C19.15869512 15.55271143 28.21164189 23.59261777 36 33 C36.80566406 33.9178125 37.61132812 34.835625 38.44140625 35.78125 C85.89484858 90.00760838 126.41968516 183.45203864 125 257 C124.04222656 257.47308594 123.08445312 257.94617188 122.09765625 258.43359375 C102.04260541 268.29139206 102.04260541 268.29139206 82.90625 279.78515625 C81 281 81 281 80 281 C79.8548999 279.87021729 79.7097998 278.74043457 79.56030273 277.57641602 C75.26728202 244.41390282 69.84297562 212.03083808 60 180 C59.55019775 178.52708496 59.55019775 178.52708496 59.09130859 177.02441406 C47.59580397 139.85703423 30.75418434 103.26373634 6 73 C5.56333008 72.46181641 5.12666016 71.92363281 4.67675781 71.36914062 C-4.30409673 60.33865981 -13.83794676 50.5137818 -25.13305664 41.85424805 C-31.0602561 37.26980668 -36.51553593 32.71921318 -38 25 C-38.92970076 16.9510838 -37.81918206 10.63073002 -33 4 C-23.28786663 -5.63236225 -11.67661179 -6.32766691 0 0 Z " fill="#F1C40B" transform="translate(921,47)"/>
<path d="M0 0 C5.75127361 -0.34507642 10.81935324 1.25200431 15.703125 4.1953125 C20.67488507 9.18716049 22.84344391 13.83335354 23.078125 20.8828125 C23.02680939 26.94538579 21.69813625 30.66398467 17.703125 35.1953125 C11.53647976 41.05362548 5.5211261 41.52462732 -2.609375 42.0703125 C-32.22889236 44.43899569 -57.77264574 57.02992606 -77.21484375 79.57421875 C-81.20539879 84.59797565 -84.80506621 89.8193417 -88.296875 95.1953125 C-88.90402344 96.12859375 -89.51117188 97.061875 -90.13671875 98.0234375 C-103.19391524 119.22287669 -109.46079652 143.82182889 -113.296875 168.1953125 C-113.41546875 168.9382959 -113.5340625 169.6812793 -113.65625 170.44677734 C-117.07380568 193.01179903 -115.42767235 216.57936551 -114.296875 239.1953125 C-127.826875 239.1953125 -141.356875 239.1953125 -155.296875 239.1953125 C-161.25132372 177.41790705 -153.96353979 108.05177521 -113.296875 58.1953125 C-112.82862305 57.61571777 -112.36037109 57.03612305 -111.87792969 56.43896484 C-86.56284094 25.28259624 -52.70933712 5.01843543 -12.46484375 0.79296875 C-8.31207886 0.47012334 -4.14884601 0.35279303 0 0 Z " fill="#E9BC0A" transform="translate(597.296875,45.8046875)"/>
<path d="M0 0 C0.95688721 0.05526855 1.91377441 0.11053711 2.8996582 0.16748047 C42.54740637 2.88071769 75.32160023 20.95508536 102.3125 49.5625 C142.61517249 96.11649943 156.51512159 160.758629 152.359375 221.07421875 C151.9170249 227.03736894 151.35714273 232.98047014 150.8125 238.9375 C137.2825 238.9375 123.7525 238.9375 109.8125 238.9375 C110.1425 232.3375 110.4725 225.7375 110.8125 218.9375 C111.92723726 165.63750459 103.41530505 111.41584164 65.4375 71.1875 C45.74733715 52.70475279 22.01311474 42.78511171 -4.9375 41.5625 C-11.7106797 41.15389304 -16.73083826 40.26052791 -21.703125 35.48046875 C-26.73875324 29.7647413 -27.64041083 25.44662543 -27.50390625 17.984375 C-26.92055026 12.36687285 -24.83331671 8.62903384 -20.9375 4.625 C-13.86729966 0.28646797 -8.10859161 -0.52070197 0 0 Z " fill="#EDBE0F" transform="translate(1007.1875,46.0625)"/>
<path d="M0 0 C0.33 0 0.66 0 1 0 C1.05945801 1.06190552 1.05945801 1.06190552 1.12011719 2.14526367 C3.06219015 35.35632077 7.81578771 69.37074838 31 95 C31.73605469 95.82886719 32.47210937 96.65773438 33.23046875 97.51171875 C57.85482012 123.74287934 95.60796817 130.69007983 130.01171875 131.921875 C131.49091797 131.96054687 131.49091797 131.96054687 133 132 C133 132.33 133 132.66 133 133 C132.13012451 133.06993164 131.26024902 133.13986328 130.36401367 133.21191406 C94.27538098 136.17738464 62.19657737 141.37486322 34.62890625 166.71484375 C33 168 33 168 31 168 C30.73316406 168.58265625 30.46632813 169.1653125 30.19140625 169.765625 C28.97382431 172.04909015 27.6063981 173.77730721 25.9375 175.75 C15.98295521 188.49843989 10.44736466 202.5676768 6 218 C5.49146484 219.71509766 5.49146484 219.71509766 4.97265625 221.46484375 C1.80589821 233.95857073 1.74195586 247.18827394 1 260 C0.67 260 0.34 260 0 260 C-0.06993164 259.14994385 -0.13986328 258.2998877 -0.21191406 257.42407227 C-3.37181276 219.8888447 -10.81056697 184.67488234 -41 159 C-45.08047224 155.89810808 -49.48344179 153.4095387 -54 151 C-54.57927246 150.68836914 -55.15854492 150.37673828 -55.75537109 150.05566406 C-66.87278165 144.12192458 -77.99852846 139.88794215 -90.375 137.375 C-91.39851563 137.16335205 -92.42203125 136.9517041 -93.4765625 136.73364258 C-103.58981427 134.73076413 -113.72501006 133.71710867 -124 133 C-124 132.67 -124 132.34 -124 132 C-123.24605957 131.93006836 -122.49211914 131.86013672 -121.71533203 131.78808594 C-86.55222594 128.45859104 -51.58776436 121.8364621 -27.8125 93.125 C-6.96074405 65.82511069 -1.93401102 33.54508763 0 0 Z " fill="#F5CB03" transform="translate(1333,334)"/>
<path d="M0 0 C-0.99 0.33 -1.98 0.66 -3 1 C-3 1.66 -3 2.32 -3 3 C-9.93 2.505 -9.93 2.505 -17 2 C-17 1.67 -17 1.34 -17 1 C-11.30494264 0.3583034 -5.73266804 -0.12462322 0 0 Z " fill="#AE9112" transform="translate(1226,465)"/>
</svg>
